# xmcd
#
# Track frame offsets: 
#        150
#        25608
#        43696
#        67503
#        82519
#        92540
#        105410
#        117577
#        129813
#        144731
#        161697
#        177173
#        186428
#        195725
#        208742
#        213567
#
# Disc length: 3332 seconds
#
# Revision: 0
# Processed by: cddbd v1.5.2PL0 Copyright (c) Steve Scherf et al.
# Submitted via: ExactAudioCopy v1.3
#
DISCID=d10d0210
DTITLE=Carl Verheyen - Solo Guitar Improvisations
DYEAR=2002
DGENRE=Blues Rock
TTITLE0=I Love You Porgy
TTITLE1=Sunny Afternoon
TTITLE2=The Notch
TTITLE3=God Bless The Child
TTITLE4=Mercury Rain
TTITLE5=Mr. Lucky
TTITLE6=Not Yet Chet
TTITLE7=Wildflowers #2
TTITLE8=Goodbye Pork Pie Hat
TTITLE9=Cactus Tree
TTITLE10=Dixie Walk
TTITLE11=Hubcap With Strings
TTITLE12=Howdy Control
TTITLE13=Mumba
TTITLE14=Big Sur
TTITLE15=Pattington Cove Suite
EXTD=
EXTT0=
EXTT1=
EXTT2=
EXTT3=
EXTT4=
EXTT5=
EXTT6=
EXTT7=
EXTT8=
EXTT9=
EXTT10=
EXTT11=
EXTT12=
EXTT13=
EXTT14=
EXTT15=
PLAYORDER=
